<svg width="32" height="32" viewBox="0 0 32 32" fill="none" xmlns="http://www.w3.org/2000/svg">
<path d="M13.0484 15.4L15.4871 10C15.9722 10 16.4374 10.1896 16.7804 10.5272C17.1234 10.8648 17.3161 11.3226 17.3161 11.8V14.2H20.7668C20.9436 14.198 21.1187 14.2339 21.2799 14.3051C21.4412 14.3763 21.5848 14.4812 21.7008 14.6125C21.8168 14.7437 21.9024 14.8983 21.9516 15.0653C22.0009 15.2324 22.0127 15.408 21.9862 15.58L21.1448 20.9799C21.1007 21.2661 20.9531 21.5269 20.729 21.7143C20.5049 21.9018 20.2196 22.0032 19.9255 21.9999H13.0484M13.0484 15.4V21.9999M13.0484 15.4H11.2193C10.896 15.4 10.5858 15.5264 10.3571 15.7514C10.1285 15.9765 10 16.2817 10 16.6V20.7999C10 21.1182 10.1285 21.4234 10.3571 21.6485C10.5858 21.8735 10.896 21.9999 11.2193 21.9999H13.0484" stroke="white" stroke-width="1.1" stroke-linecap="round" stroke-linejoin="round"/>
<path d="M16 31C24.2843 31 31 24.2843 31 16C31 7.71573 24.2843 1 16 1C7.71573 1 1 7.71573 1 16C1 24.2843 7.71573 31 16 31Z" stroke="white" stroke-linecap="round" stroke-linejoin="round"/>
</svg>
