<svg width="20" height="20" viewBox="0 0 20 20" fill="none" xmlns="http://www.w3.org/2000/svg">
<path fill-rule="evenodd" clip-rule="evenodd" d="M19.93 14.1229C19.9584 15.6764 19.3789 17.1795 18.315 18.3119C17.1851 19.3803 15.6797 19.9606 14.125 19.9269C12.474 20.0209 7.52499 20.0209 5.87499 19.9269C4.32126 19.955 2.81792 19.3756 1.68499 18.3119C0.617544 17.1818 0.0374441 15.6771 0.0699941 14.1229C-0.0230059 12.4719 -0.0230059 7.52294 0.0699941 5.87294C0.0395541 4.3188 0.619334 2.8146 1.68499 1.68294C2.81767 0.619462 4.32162 0.0415714 5.87499 0.0729414C7.52599 -0.0210586 12.475 -0.0210586 14.125 0.0729414C15.6789 0.0438814 17.1826 0.623471 18.315 1.68794C19.3825 2.81807 19.9625 4.32272 19.93 5.87694C20.023 7.52794 20.023 12.4719 19.93 14.1229ZM18.2 9.99994C18.2 8.54494 18.32 5.42194 17.8 4.10594C17.4572 3.23673 16.7692 2.54869 15.9 2.20594C14.588 1.68894 11.461 1.80594 10.006 1.80594C8.551 1.80594 5.42799 1.68494 4.11199 2.20594C3.24298 2.54899 2.55505 3.23693 2.21199 4.10594C1.69499 5.41794 1.81199 8.54494 1.81199 9.99994C1.81199 11.4549 1.69099 14.5779 2.21199 15.8939C2.55535 16.7627 3.24318 17.4505 4.11199 17.7939C5.42399 18.3109 8.552 18.1939 10.006 18.1939C11.46 18.1939 14.584 18.3149 15.9 17.7939C16.769 17.4509 17.4569 16.7629 17.8 15.8939C18.319 14.5819 18.2 11.4549 18.2 9.99994ZM15.13 9.99994C15.13 12.8311 12.8352 15.1263 10.004 15.1269C7.17282 15.1275 4.8771 12.8331 4.87599 10.0019C4.87489 7.17077 7.16882 4.8746 10 4.87293C11.3608 4.87028 12.6666 5.40953 13.629 6.37155C14.5914 7.33357 15.1321 8.63914 15.13 9.99994ZM13.336 9.99994C13.336 8.15954 11.8444 6.6675 10.004 6.66694C8.1636 6.66639 6.6711 8.15754 6.66999 9.99794C6.66889 11.8383 8.1596 13.3312 10 13.3329C11.8406 13.3318 13.3328 11.8405 13.335 9.99994H13.336ZM15.336 5.85895C14.6733 5.85895 14.136 5.32168 14.136 4.65894C14.136 3.9962 14.6733 3.45894 15.336 3.45894C15.9987 3.45894 16.536 3.9962 16.536 4.65894C16.5379 4.97725 16.4124 5.28311 16.1876 5.50847C15.9628 5.73383 15.6573 5.86002 15.339 5.85895H15.336Z" fill="white"/>
</svg>
