<svg width="85" height="116" viewBox="0 0 85 116" fill="none" xmlns="http://www.w3.org/2000/svg">
<g filter="url(#filter0_d_1006_206)">
<path d="M19.0001 27L19 4H84.5001V27.5L19.0001 27Z" fill="#B1060F"/>
</g>
<g filter="url(#filter1_d_1006_206)">
<path d="M55 77.5C55.5 72 55 27.5 55 27.5V4.00002L84.5 4V77C83.8694 86.7111 82.5304 91.2334 78 97.5C68.2814 108.291 60.9505 111.383 44 111.5C26.4964 111.088 18.8174 107.393 8 96L24.5 77C32.2961 85.6857 36.5693 88.3696 44 87.5C50.4375 86.5832 54.5 83 55 77.5Z" fill="#E50914"/>
</g>
<defs>
<filter id="filter0_d_1006_206" x="11" y="0" width="73.5" height="31.5" filterUnits="userSpaceOnUse" color-interpolation-filters="sRGB">
<feFlood flood-opacity="0" result="BackgroundImageFix"/>
<feColorMatrix in="SourceAlpha" type="matrix" values="0 0 0 0 0 0 0 0 0 0 0 0 0 0 0 0 0 0 127 0" result="hardAlpha"/>
<feOffset dx="-4"/>
<feGaussianBlur stdDeviation="2"/>
<feComposite in2="hardAlpha" operator="out"/>
<feColorMatrix type="matrix" values="0 0 0 0 0 0 0 0 0 0 0 0 0 0 0 0 0 0 0.25 0"/>
<feBlend mode="normal" in2="BackgroundImageFix" result="effect1_dropShadow_1006_206"/>
<feBlend mode="normal" in="SourceGraphic" in2="effect1_dropShadow_1006_206" result="shape"/>
</filter>
<filter id="filter1_d_1006_206" x="0" y="0" width="84.5" height="115.5" filterUnits="userSpaceOnUse" color-interpolation-filters="sRGB">
<feFlood flood-opacity="0" result="BackgroundImageFix"/>
<feColorMatrix in="SourceAlpha" type="matrix" values="0 0 0 0 0 0 0 0 0 0 0 0 0 0 0 0 0 0 127 0" result="hardAlpha"/>
<feOffset dx="-4"/>
<feGaussianBlur stdDeviation="2"/>
<feComposite in2="hardAlpha" operator="out"/>
<feColorMatrix type="matrix" values="0 0 0 0 0 0 0 0 0 0 0 0 0 0 0 0 0 0 0.25 0"/>
<feBlend mode="normal" in2="BackgroundImageFix" result="effect1_dropShadow_1006_206"/>
<feBlend mode="normal" in="SourceGraphic" in2="effect1_dropShadow_1006_206" result="shape"/>
</filter>
</defs>
</svg>
