<svg width="22" height="18" viewBox="0 0 22 18" fill="none" xmlns="http://www.w3.org/2000/svg">
<path fill-rule="evenodd" clip-rule="evenodd" d="M19.768 5.20698C19.7914 8.59318 18.4565 11.8475 16.062 14.242C13.6675 16.6365 10.4132 17.9714 7.027 17.948C4.58923 17.9544 2.20152 17.2564 0.151001 15.938C0.509981 15.9771 0.870911 15.9955 1.232 15.993C3.24768 15.9984 5.20639 15.3245 6.792 14.08C4.87438 14.0472 3.18971 12.799 2.6 10.974C2.87982 11.0187 3.16264 11.0421 3.446 11.044C3.84354 11.0428 4.23935 10.9914 4.624 10.891C2.53637 10.4667 1.0367 8.63028 1.038 6.49998V6.44098C1.65835 6.78763 2.3519 6.9826 3.062 7.00998C1.08979 5.69331 0.482251 3.06952 1.675 1.01998C3.94972 3.82014 7.30596 5.52335 10.909 5.70599C10.8375 5.36899 10.8009 5.02549 10.8 4.68098C10.8014 2.84293 11.9248 1.19202 13.6341 0.516234C15.3434 -0.159546 17.2921 0.276785 18.55 1.61698C19.5522 1.4234 20.5131 1.05729 21.39 0.534985C21.0556 1.56892 20.3555 2.44536 19.421 2.99998C20.3102 2.89963 21.1795 2.66707 22 2.30998C21.3866 3.20226 20.6273 3.98487 19.754 4.62498C19.768 4.81998 19.768 5.01398 19.768 5.20698Z" fill="white"/>
</svg>
