<svg width="22" height="16" viewBox="0 0 22 16" fill="none" xmlns="http://www.w3.org/2000/svg">
<path fill-rule="evenodd" clip-rule="evenodd" d="M21.54 2.67C21.288 1.71873 20.549 0.97331 19.6 0.713C17.88 0.25 11 0.25 11 0.25C11 0.25 4.11997 0.25 2.39997 0.713C1.45094 0.97331 0.71199 1.71873 0.45997 2.67C0.14265 4.42869 -0.0113372 6.213 -3.01782e-05 8C-0.0113372 9.787 0.14265 11.5713 0.45997 13.33C0.71288 14.2825 1.45401 15.0282 2.40497 15.287C4.11997 15.75 11.005 15.75 11.005 15.75C11.005 15.75 17.885 15.75 19.6 15.287C20.549 15.0267 21.288 14.2813 21.54 13.33C21.8573 11.5713 22.0113 9.787 22 8C22.0113 6.213 21.8573 4.42869 21.54 2.67ZM8.74997 11.27V4.729L14.5 8L8.74997 11.27Z" fill="white"/>
</svg>
